<svg version="1.1" id="Layer_1" xmlns="http://www.w3.org/2000/svg" xmlns:xlink="http://www.w3.org/1999/xlink" x="0px" y="0px"
	 width="100%" viewBox="0 0 2368 894" enable-background="new 0 0 2368 894" xml:space="preserve">
<path fill="#FFFFFF" opacity="1.000000" stroke="none" 
	d="
M760.000000,895.000000 
	C507.046722,895.000000 254.093460,895.000000 1.070099,895.000000 
	C1.070099,597.101807 1.070099,299.203552 1.070099,1.000000 
	C212.025742,1.000000 423.051636,1.000000 634.320435,1.374094 
	C632.738892,1.832260 630.914551,1.988904 629.090149,1.989662 
	C594.259949,2.004144 559.429810,2.000283 524.599609,2.000223 
	C522.835938,2.000220 521.072205,2.000223 519.393250,2.000223 
	C519.393250,55.711544 519.393250,108.759262 519.393250,161.999893 
	C521.610413,161.999893 523.436218,161.999878 525.262085,161.999878 
	C638.085205,161.999908 750.908264,161.981049 863.731323,162.061905 
	C868.798462,162.065521 873.906433,162.713455 878.922974,163.514877 
	C889.297913,165.172318 899.074585,168.944733 907.810913,174.575012 
	C916.642273,180.266510 925.646118,186.213058 932.939331,193.651047 
	C945.114807,206.068237 956.168274,219.611282 967.356384,232.963303 
	C977.439819,244.996994 986.939514,257.518219 996.939209,269.624115 
	C1006.029114,280.628754 1015.094055,291.692139 1024.832275,302.110657 
	C1032.210083,310.003784 1042.114014,314.336823 1052.483276,316.915497 
	C1071.829346,321.726471 1091.766113,321.662231 1111.441162,321.768341 
	C1169.866943,322.083557 1228.299561,321.453766 1286.726318,320.874756 
	C1295.361938,320.789185 1304.019165,319.230377 1312.598877,317.913696 
	C1330.748169,315.128418 1344.576416,304.854340 1356.064453,291.299225 
	C1364.819946,280.968323 1372.696655,269.898010 1381.213501,259.358063 
	C1392.123169,245.856903 1403.250244,232.530777 1414.344116,219.179413 
	C1425.333740,205.953537 1436.035522,192.489731 1450.173706,182.254837 
	C1467.377563,169.800674 1486.071167,161.983978 1507.635864,161.988647 
	C1619.958984,162.012970 1732.282227,161.999939 1844.605347,161.999908 
	C1846.683472,161.999908 1848.761597,161.999908 1850.711304,161.999908 
	C1850.711304,108.261765 1850.711304,55.331947 1850.711304,2.000218 
	C1848.629272,2.000218 1846.831421,2.000215 1845.033569,2.000218 
	C1810.036743,2.000278 1775.039917,2.014191 1740.043213,1.957917 
	C1738.361572,1.955213 1736.681030,1.333469 1735.000000,1.000001 
	C1946.271362,1.000000 2157.542725,1.000000 2369.000000,1.000000 
	C2369.000000,269.692474 2369.000000,538.385010 2368.637207,807.477173 
	C2367.591064,806.994873 2366.512207,806.204224 2366.283936,805.217041 
	C2363.417480,792.811890 2356.865967,782.729187 2347.647949,774.065247 
	C2336.164551,763.272278 2322.873779,757.148438 2306.704346,756.694092 
	C2304.598633,756.265747 2302.787354,756.018982 2300.976318,756.017151 
	C2275.984131,755.991760 2250.992188,756.000000 2225.706055,755.702881 
	C2224.101562,755.270569 2222.790771,755.017517 2221.480225,755.017029 
	C2167.833252,754.997192 2114.186035,754.997925 2060.539062,755.012817 
	C2059.217285,755.013184 2057.775635,754.896057 2056.594238,755.357300 
	C2051.512695,757.341431 2048.131348,754.310791 2045.470825,751.054077 
	C2042.690674,747.651062 2041.061279,743.609924 2042.571045,738.724182 
	C2044.533447,732.372498 2048.455566,728.793640 2055.468750,728.000000 
	C2108.731445,728.000000 2161.525391,728.010315 2214.319336,727.957886 
	C2216.213135,727.955994 2218.106445,727.333374 2220.346191,726.804688 
	C2221.128174,724.748169 2221.927246,722.890015 2221.941895,721.025635 
	C2222.049561,707.367126 2222.010986,693.707520 2221.995605,680.048218 
	C2221.987305,672.824463 2221.155518,672.001099 2214.017822,672.000854 
	C2158.547852,671.999207 2103.077393,671.926147 2047.607666,672.036438 
	C2025.436279,672.080566 2007.148438,680.169922 1993.865234,698.601624 
	C1984.511230,711.581177 1981.463257,726.447144 1980.135742,741.840576 
	C1979.865967,744.970398 1981.716919,748.224121 1981.935181,751.464783 
	C1983.236328,770.776855 1992.423340,785.740112 2007.496094,797.165588 
	C2020.105957,806.724182 2034.619873,810.155029 2050.458740,810.107849 
	C2129.582031,809.872070 2208.706299,810.000000 2287.830322,810.000122 
	C2289.829346,810.000122 2291.851074,809.807312 2293.822998,810.039062 
	C2299.815430,810.743469 2305.495605,812.280762 2307.353760,819.003845 
	C2308.086670,821.655212 2307.953369,824.583313 2307.971436,827.386963 
	C2308.011230,833.485840 2306.539062,836.003784 2300.699951,836.768921 
	C2291.529785,837.970337 2282.245605,838.302246 2272.722412,838.695618 
	C2270.790527,838.253784 2269.145752,838.001465 2267.501221,838.000977 
	C2225.670898,837.988953 2183.840576,838.003296 2141.540527,838.007324 
	C2097.712158,838.001099 2054.353760,838.000549 2010.526855,838.000000 
	C1988.382080,838.002380 1966.705688,838.004822 1944.795898,838.105103 
	C1944.376587,838.476990 1944.190796,838.751038 1944.002930,839.449402 
	C1942.470947,847.995422 1940.893555,856.108521 1939.422729,864.240845 
	C1937.569824,874.485718 1935.803711,884.746277 1934.000000,895.000000 
	C1913.640869,895.000000 1893.281616,895.000000 1872.532715,894.630859 
	C1874.410767,893.498596 1876.626099,892.463928 1878.954468,892.014893 
	C1899.429810,888.066223 1915.820923,878.257202 1923.645630,858.196777 
	C1927.394409,848.585815 1929.046143,838.100830 1931.129395,827.905762 
	C1940.831909,780.423950 1950.364990,732.907532 1959.919922,685.395630 
	C1960.774170,681.148193 1961.352173,676.845215 1962.087769,672.391357 
	C1937.914429,672.391357 1914.686035,672.391357 1891.576538,672.391357 
	C1890.677002,676.836670 1889.791748,680.870789 1889.050171,684.931213 
	C1884.447144,710.134155 1879.864380,735.340881 1875.298584,760.550659 
	C1872.499634,776.005066 1869.781494,791.474243 1866.952637,806.923096 
	C1865.405029,815.375366 1863.741821,823.807312 1862.049316,832.231934 
	C1861.433350,835.297913 1859.905029,837.582397 1856.265747,836.978088 
	C1852.750000,836.394226 1848.327271,839.056824 1846.419556,833.111450 
	C1841.199829,816.843872 1835.458252,800.744629 1830.025024,784.544495 
	C1821.634888,759.528076 1813.257080,734.506958 1805.022949,709.438843 
	C1801.607178,699.039490 1795.058716,690.463806 1786.847534,684.144226 
	C1780.418213,679.196228 1771.695190,677.088745 1763.805176,674.233582 
	C1759.412109,672.643921 1754.677368,671.585632 1750.025513,671.238708 
	C1745.284302,670.885132 1740.459229,671.836731 1735.664795,671.943054 
	C1733.057495,672.000854 1730.375854,671.019104 1727.838257,671.351074 
	C1724.471191,671.791626 1721.262939,673.367249 1717.898438,673.918335 
	C1695.450439,677.595215 1680.663086,690.732910 1673.193481,711.634094 
	C1665.375732,733.509399 1658.749878,755.809509 1651.508911,777.893066 
	C1649.907227,782.777710 1647.725464,787.472595 1646.131958,792.359497 
	C1641.866211,805.442383 1637.861816,818.610840 1633.549316,831.677917 
	C1632.531616,834.761780 1630.493286,837.033569 1626.597412,837.058899 
	C1620.322021,837.099670 1617.276978,834.315063 1616.012573,827.099731 
	C1612.331909,806.095703 1608.653687,785.090759 1604.833008,764.111938 
	C1599.620117,735.489563 1594.210571,706.902893 1589.056763,678.270081 
	C1588.223877,673.643250 1586.176880,671.868042 1581.410278,671.917542 
	C1562.248901,672.116821 1543.084106,671.990906 1523.920654,672.005615 
	C1518.257690,672.009949 1517.056396,673.372192 1518.163940,678.884827 
	C1525.299683,714.397766 1532.536743,749.890503 1539.630981,785.411682 
	C1543.549927,805.033508 1547.113892,824.726868 1551.111572,844.332153 
	C1553.474609,855.920410 1558.417725,866.368713 1566.603149,875.099548 
	C1575.757446,884.863647 1587.554565,889.324585 1600.280762,892.050354 
	C1602.942383,892.620422 1605.431396,893.995789 1608.000000,895.000000 
	C1544.640869,895.000000 1481.281616,895.000000 1417.500488,894.645996 
	C1417.723022,893.627075 1418.280518,892.517334 1419.026855,892.371216 
	C1423.105591,891.572449 1427.274048,891.210327 1431.330811,890.326599 
	C1440.536865,888.321106 1449.725464,886.356018 1457.905151,881.140442 
	C1462.978027,877.905762 1468.896118,875.945312 1473.800293,872.507690 
	C1484.735718,864.842346 1493.214233,854.903564 1500.643677,843.684204 
	C1509.153809,830.833191 1513.052368,816.503296 1516.856201,802.027283 
	C1517.811646,798.391479 1517.666016,794.416687 1517.677734,790.596558 
	C1517.689331,786.800781 1517.296631,783.001099 1517.019531,779.207642 
	C1516.496094,772.041260 1517.070435,764.552368 1515.139160,757.782104 
	C1511.233887,744.091187 1506.271240,730.691772 1497.642700,718.974548 
	C1487.138428,704.710327 1474.611084,692.432983 1458.546753,685.163208 
	C1446.508301,679.715332 1433.378418,676.382812 1420.445923,673.332214 
	C1413.984985,671.808167 1406.878052,673.003540 1400.063232,673.003052 
	C1329.404785,672.998047 1258.745605,672.811157 1188.088257,673.090393 
	C1158.724609,673.206421 1129.320679,671.498291 1100.007446,673.859314 
	C1090.447388,674.629272 1080.587280,676.222107 1071.683105,679.598022 
	C1055.523438,685.724731 1041.054810,694.709351 1029.212646,708.007874 
	C1013.915405,725.186523 1005.018250,745.122986 1001.194946,767.362366 
	C999.649658,776.351318 999.682495,785.767395 1000.215637,794.918030 
	C1000.860229,805.980713 1004.359497,816.524292 1008.785889,826.719482 
	C1009.933167,829.362061 1010.474854,832.267517 1011.573792,836.000000 
	C1008.438293,836.000000 1006.336060,836.000000 1004.233887,836.000000 
	C941.741150,836.000000 879.248352,836.000000 816.755615,836.000000 
	C805.256958,836.000000 793.710815,836.611633 782.280884,835.725159 
	C777.065735,835.320618 770.645142,833.234192 767.396912,829.577881 
	C764.201538,825.981018 763.211487,819.438904 763.175659,814.176025 
	C762.869141,769.183411 762.937683,724.187500 763.091370,679.193237 
	C763.107727,674.413574 761.733643,672.812012 756.864624,672.900513 
	C741.871399,673.173279 726.869934,672.996887 711.871704,673.001404 
	C705.008911,673.003479 705.001526,673.010315 705.001160,679.954590 
	C704.998901,727.782349 705.020203,775.610168 704.957764,823.437866 
	C704.953308,826.893860 703.652527,830.455505 704.162292,833.782959 
	C705.288147,841.131042 707.052063,848.393066 708.797546,855.631897 
	C711.569275,867.126221 717.518372,876.400940 727.769714,882.805847 
	C736.840393,888.473206 746.659424,891.377747 757.237183,892.246704 
	C758.226807,892.328003 759.082275,894.043335 760.000000,895.000000 
M1288.448975,523.000000 
	C1295.814575,522.321289 1303.384644,522.479858 1310.492310,520.744629 
	C1318.748169,518.729126 1327.129150,515.988037 1334.469849,511.823914 
	C1341.261230,507.971436 1347.369141,502.387024 1352.675171,496.560944 
	C1361.595215,486.766693 1369.688965,476.214996 1378.041992,465.910248 
	C1386.802856,455.102234 1395.347900,444.117554 1404.200317,433.385773 
	C1410.467651,425.787903 1417.533569,418.817749 1423.458618,410.974792 
	C1434.932861,395.786743 1449.128052,383.969849 1465.637573,374.760559 
	C1478.809814,367.412750 1493.214600,364.542755 1508.046509,364.121124 
	C1518.293457,363.829834 1528.572632,364.967255 1538.837769,364.974304 
	C1640.833740,365.044220 1742.829834,365.011658 1844.825806,365.008057 
	C1846.763794,365.007996 1848.701660,365.008057 1850.632446,365.008057 
	C1850.632446,311.011688 1850.632446,257.628418 1850.632446,203.999710 
	C1848.282837,203.999710 1846.296631,203.999710 1844.310425,203.999725 
	C1791.312500,203.999863 1738.313477,203.819672 1685.317505,204.136276 
	C1673.192139,204.208710 1660.979492,205.337952 1648.977661,207.126129 
	C1623.657715,210.898590 1600.680664,221.219299 1578.747803,234.049698 
	C1555.158447,247.849136 1535.918579,266.488647 1519.439453,288.046021 
	C1505.654297,306.079529 1491.851562,324.043854 1475.563843,339.973267 
	C1459.430420,355.751740 1439.992065,363.862396 1417.716431,363.892548 
	C1266.222534,364.097656 1114.728394,364.011688 963.234253,363.956879 
	C956.806213,363.954559 950.377991,363.339539 943.950500,362.998169 
	C926.264465,362.058868 910.617493,355.259583 898.195496,343.256714 
	C885.211670,330.710907 873.772278,316.530609 862.031738,302.746307 
	C853.455139,292.676727 845.963013,281.660217 837.124084,271.843170 
	C825.667908,259.119293 813.111267,247.447556 798.177185,238.707687 
	C788.748047,233.189468 779.608704,227.017319 769.723389,222.480835 
	C759.287781,217.691788 748.254211,214.055496 737.238464,210.719284 
	C723.754272,206.635498 709.868530,204.071411 695.718140,204.044556 
	C638.887207,203.936707 582.055969,203.999832 525.224854,203.999756 
	C523.282166,203.999756 521.339539,203.999756 519.349731,203.999756 
	C519.349731,257.958893 519.349731,311.342072 519.349731,365.008026 
	C521.342163,365.008026 522.991028,365.012604 524.639832,365.007355 
	C629.896118,364.672028 735.152344,364.306671 840.408813,364.047577 
	C850.341309,364.023102 860.273376,364.777557 870.209534,364.969025 
	C880.714722,365.171417 890.671570,367.962799 899.850525,372.576630 
	C914.843323,380.112640 928.544128,389.496979 939.367371,402.785980 
	C948.494690,413.992676 958.661377,424.349487 967.869812,435.494171 
	C985.054321,456.291992 1001.870544,477.393982 1018.853271,498.358673 
	C1026.211182,507.441895 1035.574951,513.423828 1046.594238,517.360168 
	C1064.181641,523.642761 1082.589966,523.647827 1100.673828,523.744690 
	C1162.935913,524.078491 1225.203613,523.333801 1288.448975,523.000000 
M578.500000,728.000000 
	C612.588806,728.000000 646.677551,728.000000 680.766357,728.000000 
	C680.764771,727.776794 680.763184,727.553528 680.761597,727.330322 
	C596.586853,727.330322 512.412048,727.330322 428.237305,727.330322 
	C428.237335,727.553528 428.237366,727.776794 428.237396,728.000000 
	C477.991608,728.000000 527.745789,728.000000 578.500000,728.000000 
M144.612030,838.000000 
	C142.136093,838.000000 139.660156,838.000000 137.184219,838.000000 
	C137.194275,838.224731 137.204330,838.449402 137.214401,838.674133 
	C163.735458,838.674133 190.256531,838.674133 216.777603,838.674133 
	C216.777359,838.449402 216.777130,838.224731 216.776886,838.000000 
	C193.044876,838.000000 169.312851,838.000000 144.612030,838.000000 
M674.341309,765.002930 
	C676.515381,765.002930 678.689514,765.002930 680.863586,765.002930 
	C680.853516,764.771667 680.843445,764.540466 680.833374,764.309204 
	C660.949951,764.309204 641.066467,764.309204 621.183044,764.309204 
	C621.182922,764.540283 621.182861,764.771362 621.182739,765.002441 
	C638.583313,765.002441 655.983826,765.002441 674.341309,765.002930 
M574.184937,766.000000 
	C575.609253,765.845459 577.033630,765.690857 578.457947,765.536316 
	C578.398987,765.211243 578.339966,764.886108 578.281006,764.561035 
	C568.419373,764.561035 558.557800,764.561035 548.696228,764.561035 
	C548.691223,765.040710 548.686157,765.520325 548.681152,766.000000 
	C556.872131,766.000000 565.063049,766.000000 574.184937,766.000000 
M676.197632,820.994080 
	C677.781433,820.994080 679.365173,820.994080 680.948975,820.994080 
	C680.946289,820.751404 680.943604,820.508728 680.940918,820.266052 
	C669.975769,820.266052 659.010559,820.266052 648.045410,820.266052 
	C648.043579,820.509094 648.041748,820.752197 648.039917,820.995239 
	C657.117432,820.995239 666.195007,820.995239 676.197632,820.994080 
z"/>
<path fill="#C3E61E" opacity="1.000000" stroke="none" 
	d="
M1734.531372,1.000001 
	C1736.681030,1.333469 1738.361572,1.955213 1740.043213,1.957917 
	C1775.039917,2.014191 1810.036743,2.000278 1845.033569,2.000218 
	C1846.831421,2.000215 1848.629272,2.000218 1850.711304,2.000218 
	C1850.711304,55.331947 1850.711304,108.261765 1850.711304,161.999908 
	C1848.761597,161.999908 1846.683472,161.999908 1844.605347,161.999908 
	C1732.282227,161.999939 1619.958984,162.012970 1507.635864,161.988647 
	C1486.071167,161.983978 1467.377563,169.800674 1450.173706,182.254837 
	C1436.035522,192.489731 1425.333740,205.953537 1414.344116,219.179413 
	C1403.250244,232.530777 1392.123169,245.856903 1381.213501,259.358063 
	C1372.696655,269.898010 1364.819946,280.968323 1356.064453,291.299225 
	C1344.576416,304.854340 1330.748169,315.128418 1312.598877,317.913696 
	C1304.019165,319.230377 1295.361938,320.789185 1286.726318,320.874756 
	C1228.299561,321.453766 1169.866943,322.083557 1111.441162,321.768341 
	C1091.766113,321.662231 1071.829346,321.726471 1052.483276,316.915497 
	C1042.114014,314.336823 1032.210083,310.003784 1024.832275,302.110657 
	C1015.094055,291.692139 1006.029114,280.628754 996.939209,269.624115 
	C986.939514,257.518219 977.439819,244.996994 967.356384,232.963303 
	C956.168274,219.611282 945.114807,206.068237 932.939331,193.651047 
	C925.646118,186.213058 916.642273,180.266510 907.810913,174.575012 
	C899.074585,168.944733 889.297913,165.172318 878.922974,163.514877 
	C873.906433,162.713455 868.798462,162.065521 863.731323,162.061905 
	C750.908264,161.981049 638.085205,161.999908 525.262085,161.999878 
	C523.436218,161.999878 521.610413,161.999893 519.393250,161.999893 
	C519.393250,108.759262 519.393250,55.711544 519.393250,2.000223 
	C521.072205,2.000223 522.835938,2.000220 524.599609,2.000223 
	C559.429810,2.000283 594.259949,2.004144 629.090149,1.989662 
	C630.914551,1.988904 632.738892,1.832260 634.781616,1.374094 
	C654.354248,1.000000 673.708435,1.000000 693.743408,1.375613 
	C715.237366,2.120703 735.177795,6.706229 754.601562,13.985163 
	C782.985962,24.622015 808.102417,40.533001 829.842285,61.511459 
	C837.352722,68.758911 843.455017,77.479195 850.091187,85.615860 
	C858.762329,96.247726 867.316650,106.974854 875.936462,117.648666 
	C885.161804,129.072205 895.083618,139.751694 907.323608,148.102188 
	C921.635437,157.866180 937.867554,161.111816 954.676147,161.871658 
	C963.408875,162.266403 972.202332,161.026657 980.967346,161.043472 
	C1121.201172,161.312836 1261.434937,161.681625 1401.668823,161.955200 
	C1408.930054,161.969360 1416.193726,161.357330 1423.454224,160.994095 
	C1437.288208,160.302032 1450.112793,156.230804 1461.694336,148.719788 
	C1471.970581,142.055328 1480.747681,133.670425 1488.448730,124.094620 
	C1496.651489,113.895058 1505.204590,103.978088 1513.544312,93.887794 
	C1524.478149,80.658798 1533.904541,66.249977 1547.257935,54.961361 
	C1559.286255,44.792908 1571.792358,35.451385 1585.527344,27.876896 
	C1613.046021,12.701022 1642.139526,2.604141 1673.964600,1.951180 
	C1674.649292,1.937131 1675.321777,1.330298 1676.000000,0.999996 
	C1695.354248,1.000000 1714.708496,1.000000 1734.531372,1.000001 
z"/>
<path fill="#FFFFFF" opacity="1.000000" stroke="none" 
	d="
M1675.531372,0.999996 
	C1675.321777,1.330298 1674.649292,1.937131 1673.964600,1.951180 
	C1642.139526,2.604141 1613.046021,12.701022 1585.527344,27.876896 
	C1571.792358,35.451385 1559.286255,44.792908 1547.257935,54.961361 
	C1533.904541,66.249977 1524.478149,80.658798 1513.544312,93.887794 
	C1505.204590,103.978088 1496.651489,113.895058 1488.448730,124.094620 
	C1480.747681,133.670425 1471.970581,142.055328 1461.694336,148.719788 
	C1450.112793,156.230804 1437.288208,160.302032 1423.454224,160.994095 
	C1416.193726,161.357330 1408.930054,161.969360 1401.668823,161.955200 
	C1261.434937,161.681625 1121.201172,161.312836 980.967346,161.043472 
	C972.202332,161.026657 963.408875,162.266403 954.676147,161.871658 
	C937.867554,161.111816 921.635437,157.866180 907.323608,148.102188 
	C895.083618,139.751694 885.161804,129.072205 875.936462,117.648666 
	C867.316650,106.974854 858.762329,96.247726 850.091187,85.615860 
	C843.455017,77.479195 837.352722,68.758911 829.842285,61.511459 
	C808.102417,40.533001 782.985962,24.622015 754.601562,13.985163 
	C735.177795,6.706229 715.237366,2.120703 694.212036,1.375613 
	C1021.020935,1.000000 1348.041870,1.000000 1675.531372,0.999996 
z"/>
<path fill="#FEFEFE" opacity="1.000000" stroke="none" 
	d="
M760.468689,895.000000 
	C759.082275,894.043335 758.226807,892.328003 757.237183,892.246704 
	C746.659424,891.377747 736.840393,888.473206 727.769714,882.805847 
	C717.518372,876.400940 711.569275,867.126221 708.797546,855.631897 
	C707.052063,848.393066 705.288147,841.131042 704.162292,833.782959 
	C703.652527,830.455505 704.953308,826.893860 704.957764,823.437866 
	C705.020203,775.610168 704.998901,727.782349 705.001160,679.954590 
	C705.001526,673.010315 705.008911,673.003479 711.871704,673.001404 
	C726.869934,672.996887 741.871399,673.173279 756.864624,672.900513 
	C761.733643,672.812012 763.107727,674.413574 763.091370,679.193237 
	C762.937683,724.187500 762.869141,769.183411 763.175659,814.176025 
	C763.211487,819.438904 764.201538,825.981018 767.396912,829.577881 
	C770.645142,833.234192 777.065735,835.320618 782.280884,835.725159 
	C793.710815,836.611633 805.256958,836.000000 816.755615,836.000000 
	C879.248352,836.000000 941.741150,836.000000 1004.233887,836.000000 
	C1006.336060,836.000000 1008.438293,836.000000 1011.573792,836.000000 
	C1010.474854,832.267517 1009.933167,829.362061 1008.785889,826.719482 
	C1004.359497,816.524292 1000.860229,805.980713 1000.215637,794.918030 
	C999.682495,785.767395 999.649658,776.351318 1001.194946,767.362366 
	C1005.018250,745.122986 1013.915405,725.186523 1029.212646,708.007874 
	C1041.054810,694.709351 1055.523438,685.724731 1071.683105,679.598022 
	C1080.587280,676.222107 1090.447388,674.629272 1100.007446,673.859314 
	C1129.320679,671.498291 1158.724609,673.206421 1188.088257,673.090393 
	C1258.745605,672.811157 1329.404785,672.998047 1400.063232,673.003052 
	C1406.878052,673.003540 1413.984985,671.808167 1420.445923,673.332214 
	C1433.378418,676.382812 1446.508301,679.715332 1458.546753,685.163208 
	C1474.611084,692.432983 1487.138428,704.710327 1497.642700,718.974548 
	C1506.271240,730.691772 1511.233887,744.091187 1515.139160,757.782104 
	C1517.070435,764.552368 1516.496094,772.041260 1517.019531,779.207642 
	C1517.296631,783.001099 1517.689331,786.800781 1517.677734,790.596558 
	C1517.666016,794.416687 1517.811646,798.391479 1516.856201,802.027283 
	C1513.052368,816.503296 1509.153809,830.833191 1500.643677,843.684204 
	C1493.214233,854.903564 1484.735718,864.842346 1473.800293,872.507690 
	C1468.896118,875.945312 1462.978027,877.905762 1457.905151,881.140442 
	C1449.725464,886.356018 1440.536865,888.321106 1431.330811,890.326599 
	C1427.274048,891.210327 1423.105591,891.572449 1419.026855,892.371216 
	C1418.280518,892.517334 1417.723022,893.627075 1417.039185,894.645996 
	C1327.645752,895.000000 1238.291504,895.000000 1148.400391,894.622925 
	C1146.492065,893.501709 1145.136108,892.149048 1143.746460,892.113586 
	C1135.660522,891.907654 1127.561157,891.858643 1119.480103,892.144958 
	C1117.954956,892.198975 1116.491821,894.003296 1115.000000,895.000000 
	C996.979126,895.000000 878.958191,895.000000 760.468689,895.000000 
M1400.884766,838.000000 
	C1405.890991,837.658203 1411.109741,838.091125 1415.852417,836.789124 
	C1422.609375,834.934082 1429.673828,832.810364 1435.449097,829.031555 
	C1452.173340,818.088928 1456.968384,800.625977 1458.969971,782.026611 
	C1459.055542,781.231262 1458.818604,780.382996 1458.638062,779.580383 
	C1457.778931,775.759338 1456.642334,771.983154 1456.051392,768.122559 
	C1454.028442,754.906616 1447.331909,744.386536 1436.428711,737.202393 
	C1426.315674,730.538757 1414.820190,727.854004 1402.409058,727.881958 
	C1307.076904,728.096802 1211.744141,727.985962 1116.411499,728.045349 
	C1112.106567,728.048035 1107.757568,728.439819 1103.506836,729.129395 
	C1094.860962,730.531921 1086.969604,733.611328 1080.121460,739.432922 
	C1066.435547,751.067078 1061.569336,766.812683 1059.157227,783.639648 
	C1058.719482,786.693420 1060.606201,790.011963 1060.951172,793.257996 
	C1062.740356,810.096985 1070.850342,822.979553 1085.583252,831.131714 
	C1095.212158,836.459717 1105.731323,839.362488 1117.587280,838.594666 
	C1119.063965,838.729797 1120.540771,838.982727 1122.017456,838.983032 
	C1212.951416,839.001831 1303.885254,839.005554 1394.819214,838.958313 
	C1396.546265,838.957397 1398.273071,838.333252 1400.884766,838.000000 
z"/>
<path fill="#FEFEFE" opacity="1.000000" stroke="none" 
	d="
M1945.029297,838.007263 
	C1966.705688,838.004822 1988.382080,838.002380 2010.821411,838.297119 
	C2013.062012,838.729431 2014.539795,838.982300 2016.017456,838.982910 
	C2058.014893,839.000061 2100.012207,838.991821 2142.477783,838.988770 
	C2186.300537,838.993958 2229.655029,838.998230 2273.009766,839.002441 
	C2282.245605,838.302246 2291.529785,837.970337 2300.699951,836.768921 
	C2306.539062,836.003784 2308.011230,833.485840 2307.971436,827.386963 
	C2307.953369,824.583313 2308.086670,821.655212 2307.353760,819.003845 
	C2305.495605,812.280762 2299.815430,810.743469 2293.822998,810.039062 
	C2291.851074,809.807312 2289.829346,810.000122 2287.830322,810.000122 
	C2208.706299,810.000000 2129.582031,809.872070 2050.458740,810.107849 
	C2034.619873,810.155029 2020.105957,806.724182 2007.496094,797.165588 
	C1992.423340,785.740112 1983.236328,770.776855 1981.935181,751.464783 
	C1981.716919,748.224121 1979.865967,744.970398 1980.135742,741.840576 
	C1981.463257,726.447144 1984.511230,711.581177 1993.865234,698.601624 
	C2007.148438,680.169922 2025.436279,672.080566 2047.607666,672.036438 
	C2103.077393,671.926147 2158.547852,671.999207 2214.017822,672.000854 
	C2221.155518,672.001099 2221.987305,672.824463 2221.995605,680.048218 
	C2222.010986,693.707520 2222.049561,707.367126 2221.941895,721.025635 
	C2221.927246,722.890015 2221.128174,724.748169 2220.255371,726.407837 
	C2218.150635,725.804321 2216.483398,725.052795 2214.814941,725.050720 
	C2162.825439,724.988831 2110.835693,724.999756 2058.846191,725.001892 
	C2057.846680,725.001892 2056.540283,724.650696 2055.931396,725.145569 
	C2055.278564,725.675964 2055.282471,727.014282 2055.000000,728.000000 
	C2048.455566,728.793640 2044.533447,732.372498 2042.571045,738.724182 
	C2041.061279,743.609924 2042.690674,747.651062 2045.470825,751.054077 
	C2048.131348,754.310791 2051.512695,757.341431 2056.594238,755.357300 
	C2057.775635,754.896057 2059.217285,755.013184 2060.539062,755.012817 
	C2114.186035,754.997925 2167.833252,754.997192 2221.480225,755.017029 
	C2222.790771,755.017517 2224.101562,755.270569 2225.412109,756.000000 
	C2223.602295,756.729492 2221.792480,756.981750 2219.982666,756.982727 
	C2180.010986,757.005249 2140.039062,756.996094 2100.067383,757.012695 
	C2098.246094,757.013428 2096.424805,757.198975 2094.603516,757.298462 
	C2094.619385,757.865662 2094.635010,758.432800 2094.650879,759.000000 
	C2096.514648,759.000000 2098.378662,759.000000 2100.242432,759.000000 
	C2166.362549,759.000000 2232.482666,759.024597 2298.602539,758.914978 
	C2301.402588,758.910339 2304.200195,757.659790 2306.999023,756.989624 
	C2322.873779,757.148438 2336.164551,763.272278 2347.647949,774.065247 
	C2356.865967,782.729187 2363.417480,792.811890 2366.283936,805.217041 
	C2366.512207,806.204224 2367.591064,806.994873 2368.637207,807.938416 
	C2369.000000,836.975708 2369.000000,865.951355 2369.000000,895.000000 
	C2224.312500,895.000000 2079.624756,895.000000 1934.468750,895.000000 
	C1935.803711,884.746277 1937.569824,874.485718 1939.422729,864.240845 
	C1940.893555,856.108521 1942.470947,847.995422 1944.226807,839.339233 
	C1944.731934,838.601807 1944.924194,838.336060 1945.029297,838.007263 
z"/>
<path fill="#FEFEFE" opacity="1.000000" stroke="none" 
	d="
M1608.468628,895.000000 
	C1605.431396,893.995789 1602.942383,892.620422 1600.280762,892.050354 
	C1587.554565,889.324585 1575.757446,884.863647 1566.603149,875.099548 
	C1558.417725,866.368713 1553.474609,855.920410 1551.111572,844.332153 
	C1547.113892,824.726868 1543.549927,805.033508 1539.630981,785.411682 
	C1532.536743,749.890503 1525.299683,714.397766 1518.163940,678.884827 
	C1517.056396,673.372192 1518.257690,672.009949 1523.920654,672.005615 
	C1543.084106,671.990906 1562.248901,672.116821 1581.410278,671.917542 
	C1586.176880,671.868042 1588.223877,673.643250 1589.056763,678.270081 
	C1594.210571,706.902893 1599.620117,735.489563 1604.833008,764.111938 
	C1608.653687,785.090759 1612.331909,806.095703 1616.012573,827.099731 
	C1617.276978,834.315063 1620.322021,837.099670 1626.597412,837.058899 
	C1630.493286,837.033569 1632.531616,834.761780 1633.549316,831.677917 
	C1637.861816,818.610840 1641.866211,805.442383 1646.131958,792.359497 
	C1647.725464,787.472595 1649.907227,782.777710 1651.508911,777.893066 
	C1658.749878,755.809509 1665.375732,733.509399 1673.193481,711.634094 
	C1680.663086,690.732910 1695.450439,677.595215 1717.898438,673.918335 
	C1721.262939,673.367249 1724.471191,671.791626 1727.838257,671.351074 
	C1730.375854,671.019104 1733.057495,672.000854 1735.664795,671.943054 
	C1740.459229,671.836731 1745.284302,670.885132 1750.025513,671.238708 
	C1754.677368,671.585632 1759.412109,672.643921 1763.805176,674.233582 
	C1771.695190,677.088745 1780.418213,679.196228 1786.847534,684.144226 
	C1795.058716,690.463806 1801.607178,699.039490 1805.022949,709.438843 
	C1813.257080,734.506958 1821.634888,759.528076 1830.025024,784.544495 
	C1835.458252,800.744629 1841.199829,816.843872 1846.419556,833.111450 
	C1848.327271,839.056824 1852.750000,836.394226 1856.265747,836.978088 
	C1859.905029,837.582397 1861.433350,835.297913 1862.049316,832.231934 
	C1863.741821,823.807312 1865.405029,815.375366 1866.952637,806.923096 
	C1869.781494,791.474243 1872.499634,776.005066 1875.298584,760.550659 
	C1879.864380,735.340881 1884.447144,710.134155 1889.050171,684.931213 
	C1889.791748,680.870789 1890.677002,676.836670 1891.576538,672.391357 
	C1914.686035,672.391357 1937.914429,672.391357 1962.087769,672.391357 
	C1961.352173,676.845215 1960.774170,681.148193 1959.919922,685.395630 
	C1950.364990,732.907532 1940.831909,780.423950 1931.129395,827.905762 
	C1929.046143,838.100830 1927.394409,848.585815 1923.645630,858.196777 
	C1915.820923,878.257202 1899.429810,888.066223 1878.954468,892.014893 
	C1876.626099,892.463928 1874.410767,893.498596 1872.071533,894.630859 
	C1859.645752,895.000000 1847.291504,895.000000 1834.402954,894.634827 
	C1832.286377,893.522644 1830.775513,892.406067 1829.110962,892.084534 
	C1808.145630,888.035034 1793.713013,876.014160 1786.028564,856.235168 
	C1782.138306,846.222351 1779.060181,835.887268 1775.786499,825.643005 
	C1767.306396,799.106384 1758.919678,772.539917 1750.500610,745.983765 
	C1749.102051,741.572205 1747.787842,737.132996 1746.326050,732.742798 
	C1745.047485,728.903137 1741.867554,728.944519 1738.558228,728.946899 
	C1735.426025,728.949097 1733.755859,730.170593 1732.764893,733.207214 
	C1728.032837,747.707336 1723.029419,762.118774 1718.288452,776.616089 
	C1710.455078,800.569153 1703.104370,824.686401 1694.888306,848.506165 
	C1686.891602,871.689941 1671.855713,887.701111 1646.682617,892.347656 
	C1645.337646,892.596008 1644.222290,894.087280 1643.000000,895.000000 
	C1631.645752,895.000000 1620.291504,895.000000 1608.468628,895.000000 
z"/>
<path fill="#FFFFFF" opacity="1.000000" stroke="none" 
	d="
M1643.468628,895.000000 
	C1644.222290,894.087280 1645.337646,892.596008 1646.682617,892.347656 
	C1671.855713,887.701111 1686.891602,871.689941 1694.888306,848.506165 
	C1703.104370,824.686401 1710.455078,800.569153 1718.288452,776.616089 
	C1723.029419,762.118774 1728.032837,747.707336 1732.764893,733.207214 
	C1733.755859,730.170593 1735.426025,728.949097 1738.558228,728.946899 
	C1741.867554,728.944519 1745.047485,728.903137 1746.326050,732.742798 
	C1747.787842,737.132996 1749.102051,741.572205 1750.500610,745.983765 
	C1758.919678,772.539917 1767.306396,799.106384 1775.786499,825.643005 
	C1779.060181,835.887268 1782.138306,846.222351 1786.028564,856.235168 
	C1793.713013,876.014160 1808.145630,888.035034 1829.110962,892.084534 
	C1830.775513,892.406067 1832.286377,893.522644 1833.934326,894.634827 
	C1770.645752,895.000000 1707.291504,895.000000 1643.468628,895.000000 
z"/>
<path fill="#FFFFFF" opacity="1.000000" stroke="none" 
	d="
M1115.468628,895.000000 
	C1116.491821,894.003296 1117.954956,892.198975 1119.480103,892.144958 
	C1127.561157,891.858643 1135.660522,891.907654 1143.746460,892.113586 
	C1145.136108,892.149048 1146.492065,893.501709 1147.931885,894.622925 
	C1137.312378,895.000000 1126.624878,895.000000 1115.468628,895.000000 
z"/>
<path fill="#C3E61E" opacity="1.000000" stroke="none" 
	d="
M1287.959106,523.000000 
	C1225.203613,523.333801 1162.935913,524.078491 1100.673828,523.744690 
	C1082.589966,523.647827 1064.181641,523.642761 1046.594238,517.360168 
	C1035.574951,513.423828 1026.211182,507.441895 1018.853271,498.358673 
	C1001.870544,477.393982 985.054321,456.291992 967.869812,435.494171 
	C958.661377,424.349487 948.494690,413.992676 939.367371,402.785980 
	C928.544128,389.496979 914.843323,380.112640 899.850525,372.576630 
	C890.671570,367.962799 880.714722,365.171417 870.209534,364.969025 
	C860.273376,364.777557 850.341309,364.023102 840.408813,364.047577 
	C735.152344,364.306671 629.896118,364.672028 524.639832,365.007355 
	C522.991028,365.012604 521.342163,365.008026 519.349731,365.008026 
	C519.349731,311.342072 519.349731,257.958893 519.349731,203.999756 
	C521.339539,203.999756 523.282166,203.999756 525.224854,203.999756 
	C582.055969,203.999832 638.887207,203.936707 695.718140,204.044556 
	C709.868530,204.071411 723.754272,206.635498 737.238464,210.719284 
	C748.254211,214.055496 759.287781,217.691788 769.723389,222.480835 
	C779.608704,227.017319 788.748047,233.189468 798.177185,238.707687 
	C813.111267,247.447556 825.667908,259.119293 837.124084,271.843170 
	C845.963013,281.660217 853.455139,292.676727 862.031738,302.746307 
	C873.772278,316.530609 885.211670,330.710907 898.195496,343.256714 
	C910.617493,355.259583 926.264465,362.058868 943.950500,362.998169 
	C950.377991,363.339539 956.806213,363.954559 963.234253,363.956879 
	C1114.728394,364.011688 1266.222534,364.097656 1417.716431,363.892548 
	C1439.992065,363.862396 1459.430420,355.751740 1475.563843,339.973267 
	C1491.851562,324.043854 1505.654297,306.079529 1519.439453,288.046021 
	C1535.918579,266.488647 1555.158447,247.849136 1578.747803,234.049698 
	C1600.680664,221.219299 1623.657715,210.898590 1648.977661,207.126129 
	C1660.979492,205.337952 1673.192139,204.208710 1685.317505,204.136276 
	C1738.313477,203.819672 1791.312500,203.999863 1844.310425,203.999725 
	C1846.296631,203.999710 1848.282837,203.999710 1850.632446,203.999710 
	C1850.632446,257.628418 1850.632446,311.011688 1850.632446,365.008057 
	C1848.701660,365.008057 1846.763794,365.007996 1844.825806,365.008057 
	C1742.829834,365.011658 1640.833740,365.044220 1538.837769,364.974304 
	C1528.572632,364.967255 1518.293457,363.829834 1508.046509,364.121124 
	C1493.214600,364.542755 1478.809814,367.412750 1465.637573,374.760559 
	C1449.128052,383.969849 1434.932861,395.786743 1423.458618,410.974792 
	C1417.533569,418.817749 1410.467651,425.787903 1404.200317,433.385773 
	C1395.347900,444.117554 1386.802856,455.102234 1378.041992,465.910248 
	C1369.688965,476.214996 1361.595215,486.766693 1352.675171,496.560944 
	C1347.369141,502.387024 1341.261230,507.971436 1334.469849,511.823914 
	C1327.129150,515.988037 1318.748169,518.729126 1310.492310,520.744629 
	C1303.384644,522.479858 1295.814575,522.321289 1287.959106,523.000000 
z"/>
<path fill="#FEFEFE" opacity="1.000000" stroke="none" 
	d="
M2306.704346,756.694092 
	C2304.200195,757.659790 2301.402588,758.910339 2298.602539,758.914978 
	C2232.482666,759.024597 2166.362549,759.000000 2100.242432,759.000000 
	C2098.378662,759.000000 2096.514648,759.000000 2094.650879,759.000000 
	C2094.635010,758.432800 2094.619385,757.865662 2094.603516,757.298462 
	C2096.424805,757.198975 2098.246094,757.013428 2100.067383,757.012695 
	C2140.039062,756.996094 2180.010986,757.005249 2219.982666,756.982727 
	C2221.792480,756.981750 2223.602295,756.729492 2225.706055,756.297119 
	C2250.992188,756.000000 2275.984131,755.991760 2300.976318,756.017151 
	C2302.787354,756.018982 2304.598633,756.265747 2306.704346,756.694092 
z"/>
<path fill="#FEFEFE" opacity="1.000000" stroke="none" 
	d="
M2055.468750,728.000000 
	C2055.282471,727.014282 2055.278564,725.675964 2055.931396,725.145569 
	C2056.540283,724.650696 2057.846680,725.001892 2058.846191,725.001892 
	C2110.835693,724.999756 2162.825439,724.988831 2214.814941,725.050720 
	C2216.483398,725.052795 2218.150635,725.804321 2219.909180,726.603271 
	C2218.106445,727.333374 2216.213135,727.955994 2214.319336,727.957886 
	C2161.525391,728.010315 2108.731445,728.000000 2055.468750,728.000000 
z"/>
<path fill="#F7F7F7" opacity="1.000000" stroke="none" 
	d="
M578.000000,728.000000 
	C527.745789,728.000000 477.991608,728.000000 428.237396,728.000000 
	C428.237366,727.776794 428.237335,727.553528 428.237305,727.330322 
	C512.412048,727.330322 596.586853,727.330322 680.761597,727.330322 
	C680.763184,727.553528 680.764771,727.776794 680.766357,728.000000 
	C646.677551,728.000000 612.588806,728.000000 578.000000,728.000000 
z"/>
<path fill="#EBEBEB" opacity="1.000000" stroke="none" 
	d="
M2272.722412,838.695618 
	C2229.655029,838.998230 2186.300537,838.993958 2142.476807,838.745117 
	C2142.007812,838.500549 2142.010254,838.013000 2142.010254,838.013000 
	C2183.840576,838.003296 2225.670898,837.988953 2267.501221,838.000977 
	C2269.145752,838.001465 2270.790527,838.253784 2272.722412,838.695618 
z"/>
<path fill="#F7F7F7" opacity="1.000000" stroke="none" 
	d="
M2141.540527,838.007324 
	C2142.010254,838.013000 2142.007812,838.500549 2142.008789,838.744141 
	C2100.012207,838.991821 2058.014893,839.000061 2016.017456,838.982910 
	C2014.539795,838.982300 2013.062012,838.729431 2011.289795,838.297119 
	C2054.353760,838.000549 2097.712158,838.001099 2141.540527,838.007324 
z"/>
<path fill="#F7F7F7" opacity="1.000000" stroke="none" 
	d="
M145.096436,838.000000 
	C169.312851,838.000000 193.044876,838.000000 216.776886,838.000000 
	C216.777130,838.224731 216.777359,838.449402 216.777603,838.674133 
	C190.256531,838.674133 163.735458,838.674133 137.214401,838.674133 
	C137.204330,838.449402 137.194275,838.224731 137.184219,838.000000 
	C139.660156,838.000000 142.136093,838.000000 145.096436,838.000000 
z"/>
<path fill="#FCFCFC" opacity="1.000000" stroke="none" 
	d="
M673.862854,765.002686 
	C655.983826,765.002441 638.583313,765.002441 621.182739,765.002441 
	C621.182861,764.771362 621.182922,764.540283 621.183044,764.309204 
	C641.066467,764.309204 660.949951,764.309204 680.833374,764.309204 
	C680.843445,764.540466 680.853516,764.771667 680.863586,765.002930 
	C678.689514,765.002930 676.515381,765.002930 673.862854,765.002686 
z"/>
<path fill="#FCFCFC" opacity="1.000000" stroke="none" 
	d="
M573.719482,766.000000 
	C565.063049,766.000000 556.872131,766.000000 548.681152,766.000000 
	C548.686157,765.520325 548.691223,765.040710 548.696228,764.561035 
	C558.557800,764.561035 568.419373,764.561035 578.281006,764.561035 
	C578.339966,764.886108 578.398987,765.211243 578.457947,765.536316 
	C577.033630,765.690857 575.609253,765.845459 573.719482,766.000000 
z"/>
<path fill="#EBEBEB" opacity="1.000000" stroke="none" 
	d="
M675.735107,820.994629 
	C666.195007,820.995239 657.117432,820.995239 648.039917,820.995239 
	C648.041748,820.752197 648.043579,820.509094 648.045410,820.266052 
	C659.010559,820.266052 669.975769,820.266052 680.940918,820.266052 
	C680.943604,820.508728 680.946289,820.751404 680.948975,820.994080 
	C679.365173,820.994080 677.781433,820.994080 675.735107,820.994629 
z"/>
<path fill="#F7F7F7" opacity="1.000000" stroke="none" 
	d="
M1944.795898,838.105103 
	C1944.924194,838.336060 1944.731934,838.601807 1944.228760,838.914795 
	C1944.190796,838.751038 1944.376587,838.476990 1944.795898,838.105103 
z"/>
<path fill="#FFFFFF" opacity="1.000000" stroke="none" 
	d="
M1117.000000,838.000000 
	C1105.731323,839.362488 1095.212158,836.459717 1085.583252,831.131714 
	C1070.850342,822.979553 1062.740356,810.096985 1060.951172,793.257996 
	C1060.606201,790.011963 1058.719482,786.693420 1059.157227,783.639648 
	C1061.569336,766.812683 1066.435547,751.067078 1080.121460,739.432922 
	C1086.969604,733.611328 1094.860962,730.531921 1103.506836,729.129395 
	C1107.757568,728.439819 1112.106567,728.048035 1116.411499,728.045349 
	C1211.744141,727.985962 1307.076904,728.096802 1402.409058,727.881958 
	C1414.820190,727.854004 1426.315674,730.538757 1436.428711,737.202393 
	C1447.331909,744.386536 1454.028442,754.906616 1456.051392,768.122559 
	C1456.642334,771.983154 1457.778931,775.759338 1458.638062,779.580383 
	C1458.818604,780.382996 1459.055542,781.231262 1458.969971,782.026611 
	C1456.968384,800.625977 1452.173340,818.088928 1435.449097,829.031555 
	C1429.673828,832.810364 1422.609375,834.934082 1415.852417,836.789124 
	C1411.109741,838.091125 1405.890991,837.658203 1399.973755,838.000000 
	C1305.041870,838.000000 1211.020874,838.000000 1117.000000,838.000000 
z"/>
<path fill="#F7F7F7" opacity="1.000000" stroke="none" 
	d="
M1117.293701,838.297363 
	C1211.020874,838.000000 1305.041870,838.000000 1399.531372,838.000000 
	C1398.273071,838.333252 1396.546265,838.957397 1394.819214,838.958313 
	C1303.885254,839.005554 1212.951416,839.001831 1122.017456,838.983032 
	C1120.540771,838.982727 1119.063965,838.729797 1117.293701,838.297363 
z"/>
</svg>